<svg width="30" height="30" viewBox="0 0 30 30" fill="none" xmlns="http://www.w3.org/2000/svg">
<path d="M17.635 17.635L22.18 22.18" stroke="#FBA20C" stroke-width="2" stroke-linecap="round"/>
<path d="M13.2325 19.465C14.4652 19.465 15.6701 19.0995 16.6951 18.4147C17.72 17.7298 18.5188 16.7564 18.9906 15.6176C19.4623 14.4787 19.5857 13.2256 19.3452 12.0166C19.1048 10.8076 18.5112 9.69711 17.6395 8.82547C16.7679 7.95384 15.6574 7.36024 14.4484 7.11976C13.2394 6.87927 11.9863 7.00271 10.8474 7.47443C9.70857 7.94615 8.73517 8.74498 8.05034 9.76991C7.3655 10.7948 7 11.9998 7 13.2325C7 14.8855 7.6566 16.4707 8.82542 17.6395C9.99424 18.8084 11.5795 19.465 13.2325 19.465Z" stroke="#FBA20C" stroke-width="2"/>
</svg>
